<?xml version="1.0" standalone="no"?>
<svg version="1.1" id="Layer_1" xmlns="http://www.w3.org/2000/svg" xmlns:xlink="http://www.w3.org/1999/xlink" x="0px" y="0px" viewBox="0 0 595.28 595.28" enable-background="new 0 0 595.28 595.28" xml:space="preserve">
<path id="color_x5F_12" fill="#3A4D5C" d="M99.655,239.906c0.384,0,0.759-0.04,1.124-0.106c-0.489,1.364-1.79,2.342-3.322,2.342
	c-1.533,0-2.833-0.978-3.322-2.342c0.365,0.066,0.74,0.106,1.124,0.106H99.655z M48.785,269.628c-0.384,0-0.759-0.04-1.124-0.106
	c0.489,1.364,1.79,2.342,3.322,2.342c1.533,0,2.833-0.978,3.322-2.342c-0.365,0.066-0.74,0.106-1.124,0.106H48.785z M141.732,272.88
	c-0.384,0-0.759-0.04-1.124-0.106c0.489,1.364,1.79,2.342,3.322,2.342s2.833-0.978,3.322-2.342c-0.365,0.066-0.74,0.106-1.124,0.106
	H141.732z M485.872,276.29h-9.106c-0.796,0-1.571-0.083-2.328-0.219c1.013,2.826,3.707,4.851,6.881,4.851
	c3.174,0,5.868-2.025,6.881-4.851C487.443,276.207,486.668,276.29,485.872,276.29z"></path>
<path id="color_x5F_11" fill="#7DCEC8" d="M106.714,237.089c0,0.757-0.614,1.37-1.37,1.37H89.569c-0.757,0-1.37-0.614-1.37-1.37
	c0-0.757,0.614-1.37,1.37-1.37h15.775C106.101,235.718,106.714,236.332,106.714,237.089z M105.344,231.636H89.569
	c-0.757,0-1.37,0.614-1.37,1.37s0.614,1.37,1.37,1.37h15.775c0.757,0,1.37-0.614,1.37-1.37S106.101,231.636,105.344,231.636z
	 M58.87,261.358H43.096c-0.757,0-1.37,0.614-1.37,1.37c0,0.757,0.614,1.37,1.37,1.37H58.87c0.757,0,1.37-0.614,1.37-1.37
	C60.241,261.972,59.627,261.358,58.87,261.358z M58.87,265.44H43.096c-0.757,0-1.37,0.614-1.37,1.37c0,0.757,0.614,1.37,1.37,1.37
	H58.87c0.757,0,1.37-0.614,1.37-1.37C60.241,266.054,59.627,265.44,58.87,265.44z M58.87,257.064H43.096
	c-0.757,0-1.37,0.614-1.37,1.37c0,0.757,0.614,1.37,1.37,1.37H58.87c0.757,0,1.37-0.614,1.37-1.37
	C60.241,257.678,59.627,257.064,58.87,257.064z M105.344,227.342H89.569c-0.757,0-1.37,0.614-1.37,1.37
	c0,0.757,0.614,1.37,1.37,1.37h15.775c0.757,0,1.37-0.614,1.37-1.37C106.714,227.956,106.101,227.342,105.344,227.342z
	 M151.818,260.317h-15.775c-0.757,0-1.37,0.614-1.37,1.37s0.614,1.37,1.37,1.37h15.775c0.757,0,1.37-0.614,1.37-1.37
	S152.574,260.317,151.818,260.317z M151.818,264.611h-15.775c-0.757,0-1.37,0.614-1.37,1.37c0,0.757,0.614,1.37,1.37,1.37h15.775
	c0.757,0,1.37-0.614,1.37-1.37C153.188,265.224,152.574,264.611,151.818,264.611z M151.818,268.693h-15.775
	c-0.757,0-1.37,0.614-1.37,1.37s0.614,1.37,1.37,1.37h15.775c0.757,0,1.37-0.614,1.37-1.37S152.574,268.693,151.818,268.693z
	 M464.983,255.945h32.672c1.568,0,2.838-1.271,2.838-2.838s-1.271-2.838-2.838-2.838h-32.672c-1.568,0-2.838,1.271-2.838,2.838
	S463.415,255.945,464.983,255.945z M497.655,259.161h-32.672c-1.568,0-2.838,1.271-2.838,2.838s1.271,2.838,2.838,2.838h32.672
	c1.568,0,2.838-1.271,2.838-2.838S499.223,259.161,497.655,259.161z M497.655,267.616h-32.672c-1.568,0-2.838,1.271-2.838,2.838v0
	c0,1.568,1.271,2.838,2.838,2.838h32.672c1.568,0,2.838-1.271,2.838-2.838v0C500.493,268.887,499.223,267.616,497.655,267.616z"></path>
<path id="color_x5F_10" fill="#7D8E9E" d="M104.781,225.82c0.42,0,0.824-0.085,1.195-0.236v1.92c-0.19-0.1-0.403-0.161-0.632-0.161
	H89.569c-0.229,0-0.442,0.062-0.632,0.161v-1.795c0.266,0.072,0.545,0.111,0.832,0.111H104.781z M89.569,234.377
	c-0.216,0-0.417-0.054-0.599-0.143c0.054,0.526,0.178,1.03,0.353,1.509c0.08-0.015,0.162-0.025,0.246-0.025h15.775
	c0.084,0,0.166,0.01,0.246,0.025c0.175-0.48,0.299-0.983,0.353-1.509c-0.182,0.089-0.383,0.143-0.599,0.143H89.569z M95.258,239.906
	h4.397c1.529,0,2.931-0.543,4.025-1.447H91.234C92.327,239.363,93.729,239.906,95.258,239.906z M89.569,230.083
	c-0.229,0-0.442-0.062-0.632-0.161v1.875c0.19-0.1,0.403-0.161,0.632-0.161h15.775c0.229,0,0.442,0.062,0.632,0.161v-1.875
	c-0.19,0.1-0.403,0.161-0.632,0.161H89.569z M43.096,259.805c-0.229,0-0.442-0.062-0.632-0.161v1.875
	c0.19-0.1,0.403-0.161,0.632-0.161H58.87c0.229,0,0.442,0.062,0.632,0.161v-1.875c-0.19,0.1-0.403,0.161-0.632,0.161H43.096z
	 M43.296,255.542c-0.287,0-0.566-0.039-0.832-0.111v1.795c0.19-0.1,0.403-0.161,0.632-0.161H58.87c0.229,0,0.442,0.062,0.632,0.161
	v-1.92c-0.371,0.151-0.775,0.236-1.195,0.236H43.296z M48.785,269.628h4.397c1.529,0,2.931-0.543,4.025-1.447H44.76
	C45.853,269.085,47.256,269.628,48.785,269.628z M43.096,264.099c-0.216,0-0.417-0.054-0.599-0.143
	c0.054,0.526,0.178,1.03,0.353,1.509c0.08-0.015,0.162-0.025,0.246-0.025H58.87c0.084,0,0.166,0.01,0.246,0.025
	c0.175-0.48,0.299-0.983,0.353-1.509c-0.182,0.089-0.383,0.143-0.599,0.143H43.096z M136.043,263.058
	c-0.229,0-0.442-0.062-0.632-0.161v1.875c0.19-0.1,0.403-0.161,0.632-0.161h15.775c0.229,0,0.442,0.062,0.632,0.161v-1.875
	c-0.19,0.1-0.403,0.161-0.632,0.161H136.043z M136.243,258.794c-0.287,0-0.566-0.039-0.832-0.111v1.795
	c0.19-0.1,0.403-0.161,0.632-0.161h15.775c0.229,0,0.442,0.062,0.632,0.161v-1.92c-0.371,0.151-0.775,0.236-1.195,0.236H136.243z
	 M141.732,272.88h4.397c1.529,0,2.931-0.543,4.025-1.447h-12.446C138.801,272.337,140.203,272.88,141.732,272.88z M136.043,267.351
	c-0.216,0-0.417-0.054-0.599-0.143c0.054,0.526,0.178,1.03,0.353,1.509c0.08-0.015,0.162-0.025,0.246-0.025h15.775
	c0.084,0,0.166,0.01,0.246,0.025c0.175-0.48,0.299-0.983,0.353-1.509c-0.182,0.089-0.383,0.143-0.599,0.143H136.043z
	 M464.983,255.945c-0.475,0-0.916-0.128-1.309-0.334v3.884c0.393-0.206,0.834-0.334,1.309-0.334h32.672
	c0.475,0,0.915,0.128,1.309,0.334v-3.884c-0.393,0.206-0.834,0.334-1.309,0.334H464.983z M496.489,247.114h-31.092
	c-0.594,0-1.172-0.081-1.723-0.231v3.718c0.393-0.206,0.834-0.334,1.309-0.334h32.672c0.475,0,0.915,0.128,1.309,0.334v-3.977
	C498.195,246.938,497.359,247.114,496.489,247.114z M476.766,276.29h9.106c3.167,0,6.072-1.125,8.336-2.997H468.43
	C470.694,275.165,473.598,276.29,476.766,276.29z M464.983,264.838c-0.447,0-0.864-0.113-1.24-0.297
	c0.111,1.089,0.37,2.133,0.731,3.126c0.166-0.03,0.335-0.051,0.509-0.051h32.672c0.174,0,0.343,0.021,0.509,0.051
	c0.362-0.994,0.62-2.037,0.731-3.126c-0.376,0.184-0.793,0.297-1.24,0.297H464.983z"></path>
<path id="color_x5F_9" fill="#FFFFFF" d="M103.135,205.294c-0.003,0-0.006,0-0.009,0c-2.522,0.006-3.526,2.242-3.705,3.423
	l-0.008,2.668h-3.911v-2.558l-0.008-0.11c-0.179-1.181-1.184-3.417-3.705-3.423c-0.003,0-0.006,0-0.009,0
	c-0.571,0-1.648,0.131-2.516,0.999c-0.49,0.49-1.073,1.401-1.07,2.961c0.001,0.371,0.08,1.656,1.064,2.628
	c0.649,0.641,1.553,0.967,2.591,0.964h2.193v12.973h1.462v-12.973h3.911v12.973h1.462v-12.973h2.185
	c1.054-0.008,1.949-0.323,2.598-0.964c0.984-0.972,1.063-2.257,1.064-2.628c0.003-1.561-0.58-2.472-1.07-2.961
	C104.783,205.426,103.706,205.294,103.135,205.294z M94.04,211.385h-2.2c-0.652-0.003-1.185-0.176-1.556-0.542
	c-0.463-0.458-0.628-1.143-0.629-1.591c-0.002-0.85,0.214-1.497,0.641-1.925c0.515-0.515,1.205-0.571,1.484-0.571
	c0.002,0,0.003,0,0.005,0c1.764,0.004,2.186,1.765,2.255,2.133V211.385z M104.63,210.843c-0.371,0.367-0.89,0.551-1.563,0.542
	h-2.193v-2.495c0.071-0.376,0.495-2.129,2.255-2.134c0.002,0,0.004,0,0.005,0c0.279,0,0.969,0.057,1.483,0.571
	c0.427,0.427,0.643,1.075,0.641,1.925C105.258,209.7,105.093,210.385,104.63,210.843z M56.661,235.016c-0.003,0-0.006,0-0.009,0
	c-2.522,0.006-3.526,2.242-3.705,3.423l-0.008,2.668h-3.911v-2.558l-0.008-0.11c-0.179-1.181-1.184-3.417-3.705-3.423
	c-0.003,0-0.006,0-0.009,0c-0.571,0-1.648,0.131-2.516,0.999c-0.49,0.49-1.073,1.401-1.07,2.961c0.001,0.371,0.08,1.656,1.064,2.628
	c0.649,0.641,1.553,0.967,2.591,0.964h2.193v12.973h1.462v-12.973h3.911v12.973H54.4v-12.973h2.185
	c1.054-0.008,1.949-0.323,2.598-0.964c0.984-0.972,1.063-2.257,1.064-2.628c0.003-1.561-0.58-2.472-1.07-2.961
	C58.309,235.148,57.232,235.016,56.661,235.016z M47.566,241.107h-2.2c-0.652-0.003-1.185-0.176-1.556-0.542
	c-0.463-0.458-0.628-1.143-0.629-1.591c-0.002-0.85,0.214-1.497,0.641-1.925c0.515-0.515,1.205-0.571,1.484-0.571
	c0.002,0,0.003,0,0.005,0c1.764,0.004,2.186,1.765,2.255,2.133V241.107z M58.156,240.565c-0.371,0.367-0.89,0.551-1.563,0.542H54.4
	v-2.495c0.071-0.376,0.495-2.129,2.255-2.134c0.002,0,0.004,0,0.005,0c0.279,0,0.969,0.057,1.483,0.571
	c0.427,0.427,0.643,1.075,0.641,1.925C58.784,239.422,58.619,240.107,58.156,240.565z M149.608,238.269c-0.003,0-0.006,0-0.009,0
	c-2.522,0.006-3.526,2.242-3.705,3.423l-0.008,2.668h-3.911v-2.558l-0.008-0.11c-0.179-1.181-1.184-3.417-3.705-3.423
	c-0.003,0-0.006,0-0.009,0c-0.571,0-1.648,0.131-2.516,0.999c-0.49,0.49-1.073,1.401-1.07,2.961c0.001,0.371,0.08,1.656,1.064,2.628
	c0.649,0.641,1.553,0.967,2.591,0.964h2.193v12.973h1.462v-12.973h3.911v12.973h1.462v-12.973h2.185
	c1.054-0.008,1.949-0.323,2.598-0.964c0.984-0.972,1.063-2.257,1.064-2.628c0.003-1.561-0.58-2.472-1.07-2.961
	C151.256,238.4,150.179,238.269,149.608,238.269z M140.513,244.359h-2.2c-0.652-0.003-1.185-0.176-1.556-0.542
	c-0.463-0.458-0.628-1.143-0.629-1.591c-0.002-0.85,0.214-1.497,0.641-1.925c0.515-0.515,1.205-0.571,1.484-0.571
	c0.002,0,0.003,0,0.005,0c1.764,0.004,2.186,1.765,2.255,2.133V244.359z M151.103,243.817c-0.371,0.367-0.89,0.551-1.563,0.542
	h-2.193v-2.495c0.071-0.376,0.495-2.129,2.255-2.134c0.002,0,0.004,0,0.005,0c0.279,0,0.969,0.057,1.483,0.571
	c0.427,0.427,0.643,1.075,0.641,1.925C151.732,242.674,151.566,243.36,151.103,243.817z M498.291,206.672
	c-1.799-1.798-4.029-2.07-5.212-2.07c-0.007,0-0.013,0-0.02,0c-5.223,0.013-7.304,4.643-7.674,7.09l-0.017,5.525h-8.1v-5.298
	l-0.017-0.227c-0.371-2.447-2.451-7.077-7.674-7.09c-0.006,0-0.013,0-0.02,0c-1.183,0-3.413,0.272-5.212,2.07
	c-1.014,1.014-2.222,2.901-2.215,6.133c0.001,0.768,0.165,3.43,2.203,5.443c1.343,1.328,3.217,2.003,5.365,1.996h4.541v26.87h3.028
	v-26.87h8.1v26.87h3.028v-26.87h4.526c2.183-0.017,4.037-0.668,5.381-1.996c2.038-2.013,2.202-4.675,2.203-5.443
	C500.513,209.573,499.305,207.686,498.291,206.672z M474.241,217.217h-4.556c-1.352-0.007-2.455-0.364-3.223-1.123
	c-0.959-0.948-1.302-2.367-1.303-3.295c-0.004-1.761,0.443-3.101,1.328-3.986c1.066-1.066,2.496-1.183,3.073-1.183
	c0.003,0,0.007,0,0.011,0c3.654,0.009,4.528,3.656,4.671,4.419V217.217z M496.175,216.094c-0.768,0.759-1.843,1.142-3.238,1.123
	h-4.541v-5.168c0.146-0.779,1.025-4.411,4.671-4.419c0.004,0,0.007,0,0.011,0c0.577,0,2.006,0.118,3.073,1.183
	c0.885,0.885,1.332,2.226,1.328,3.986C497.477,213.727,497.134,215.147,496.175,216.094z"></path>
<path id="color_x5F_8" fill="#fed883" d="M103.066,211.385h-2.193v-2.495c0.071-0.376,0.495-2.129,2.255-2.134
	c0.002,0,0.004,0,0.005,0c0.279,0,0.969,0.057,1.484,0.571c0.427,0.427,0.643,1.075,0.641,1.925
	c-0.001,0.448-0.166,1.133-0.629,1.591C104.259,211.209,103.74,211.394,103.066,211.385z M95.501,225.82h3.911v-12.973h-3.911
	V225.82z M96.697,182.714c-9.48,0.381-17.211,8.042-17.672,17.518c-0.21,4.318,1.067,8.328,3.361,11.567
	c1.733,2.447,2.96,5.215,3.576,8.149l0.703,3.35c0.308,1.469,1.603,2.52,3.104,2.52h4.27v-12.973h-2.193
	c-1.037,0.003-1.942-0.323-2.591-0.964c-0.984-0.972-1.063-2.257-1.064-2.628c-0.003-1.561,0.58-2.472,1.07-2.961
	c0.868-0.868,1.945-0.999,2.516-0.999c0.003,0,0.006,0,0.009,0c2.522,0.006,3.526,2.242,3.705,3.423l0.008,0.11v2.558h3.911
	l0.008-2.668c0.179-1.181,1.184-3.417,3.705-3.423c0.003,0,0.006,0,0.009,0c0.571,0,1.648,0.131,2.516,0.999
	c0.49,0.49,1.073,1.401,1.069,2.961c-0.001,0.371-0.08,1.656-1.064,2.628c-0.649,0.641-1.544,0.956-2.598,0.964h-2.185v12.973h3.907
	c1.472,0,2.75-1.012,3.087-2.445l0.624-2.652c0.742-3.153,2.046-6.159,3.941-8.787c2.188-3.033,3.477-6.757,3.477-10.783
	C115.911,190.708,107.235,182.291,96.697,182.714z M91.784,206.756c-0.002,0-0.004,0-0.005,0c-0.279,0-0.969,0.057-1.483,0.571
	c-0.427,0.427-0.643,1.075-0.641,1.925c0.001,0.448,0.166,1.133,0.629,1.591c0.371,0.367,0.903,0.539,1.556,0.542h2.2v-2.496
	C93.971,208.521,93.548,206.76,91.784,206.756z M45.311,236.478c-0.002,0-0.004,0-0.005,0c-0.279,0-0.969,0.057-1.483,0.571
	c-0.427,0.427-0.643,1.075-0.641,1.925c0.001,0.448,0.166,1.133,0.629,1.591c0.371,0.367,0.903,0.539,1.556,0.542h2.2v-2.496
	C47.497,238.243,47.075,236.482,45.311,236.478z M49.028,255.542h3.911v-12.973h-3.911V255.542z M58.156,240.565
	c0.463-0.458,0.628-1.143,0.629-1.591c0.002-0.85-0.214-1.497-0.641-1.925c-0.515-0.515-1.205-0.571-1.484-0.571
	c-0.002,0-0.003,0-0.005,0c-1.76,0.004-2.185,1.758-2.255,2.134v2.495h2.193C57.266,241.116,57.785,240.931,58.156,240.565z
	 M50.223,212.436c-9.48,0.381-17.211,8.042-17.672,17.518c-0.21,4.318,1.067,8.328,3.361,11.567c1.733,2.447,2.96,5.215,3.576,8.15
	l0.703,3.35c0.308,1.469,1.603,2.52,3.104,2.52h4.27v-12.973h-2.193c-1.037,0.003-1.942-0.323-2.591-0.964
	c-0.984-0.972-1.063-2.257-1.064-2.628c-0.003-1.561,0.58-2.472,1.07-2.961c0.868-0.868,1.945-0.999,2.516-0.999
	c0.003,0,0.006,0,0.009,0c2.522,0.006,3.526,2.242,3.705,3.423l0.008,0.11v2.558h3.911l0.008-2.668
	c0.179-1.181,1.184-3.417,3.705-3.423c0.003,0,0.006,0,0.009,0c0.571,0,1.648,0.131,2.516,0.999c0.49,0.49,1.073,1.401,1.069,2.961
	c-0.001,0.371-0.08,1.656-1.064,2.628c-0.649,0.641-1.544,0.956-2.598,0.964H54.4v12.973h3.907c1.472,0,2.75-1.012,3.087-2.445
	l0.624-2.652c0.742-3.153,2.046-6.159,3.941-8.787c2.188-3.033,3.477-6.757,3.477-10.783
	C69.438,220.43,60.761,212.013,50.223,212.436z M143.17,215.688c-9.48,0.381-17.211,8.042-17.672,17.518
	c-0.21,4.318,1.067,8.328,3.361,11.567c1.733,2.447,2.96,5.215,3.576,8.15l0.703,3.35c0.308,1.469,1.604,2.52,3.104,2.52h4.27
	v-12.973h-2.193c-1.037,0.003-1.942-0.323-2.591-0.964c-0.984-0.972-1.063-2.257-1.064-2.628c-0.003-1.561,0.58-2.472,1.07-2.961
	c0.868-0.868,1.945-0.999,2.516-0.999c0.003,0,0.006,0,0.009,0c2.522,0.006,3.526,2.242,3.705,3.423l0.008,0.11v2.558h3.911
	l0.008-2.668c0.179-1.181,1.184-3.417,3.705-3.423c0.003,0,0.006,0,0.009,0c0.571,0,1.648,0.131,2.516,0.999
	c0.49,0.49,1.073,1.401,1.069,2.961c-0.001,0.371-0.08,1.656-1.064,2.628c-0.649,0.641-1.544,0.956-2.598,0.964h-2.185v12.973h3.907
	c1.472,0,2.75-1.012,3.087-2.445l0.624-2.652c0.742-3.153,2.046-6.159,3.941-8.787c2.188-3.033,3.477-6.757,3.477-10.783
	C162.385,223.683,153.708,215.265,143.17,215.688z M138.258,239.731c-0.002,0-0.004,0-0.005,0c-0.279,0-0.969,0.057-1.483,0.571
	c-0.427,0.427-0.643,1.075-0.641,1.925c0.001,0.448,0.166,1.133,0.629,1.591c0.371,0.367,0.903,0.539,1.556,0.542h2.2v-2.496
	C140.444,241.496,140.022,239.735,138.258,239.731z M151.103,243.817c0.463-0.458,0.628-1.143,0.629-1.591
	c0.002-0.85-0.214-1.497-0.641-1.925c-0.515-0.515-1.205-0.571-1.484-0.571c-0.002,0-0.003,0-0.005,0
	c-1.76,0.004-2.185,1.758-2.255,2.134v2.495h2.193C150.213,244.369,150.733,244.184,151.103,243.817z M141.975,258.794h3.911
	v-12.973h-3.911V258.794z M479.745,157.833c-19.636,0.788-35.647,16.656-36.602,36.284c-0.435,8.944,2.209,17.249,6.962,23.959
	c3.59,5.068,6.132,10.801,7.407,16.879l1.456,6.939c0.638,3.042,3.321,5.22,6.429,5.22h8.845v-26.87H469.7
	c-2.148,0.007-4.022-0.669-5.365-1.996c-2.038-2.013-2.202-4.675-2.203-5.443c-0.007-3.232,1.201-5.119,2.215-6.133
	c1.799-1.798,4.029-2.07,5.212-2.07c0.007,0,0.013,0,0.02,0c5.223,0.013,7.304,4.643,7.674,7.09l0.017,0.227v5.298h8.1l0.017-5.525
	c0.371-2.447,2.451-7.077,7.674-7.09c0.006,0,0.013,0,0.02,0c1.182,0,3.413,0.272,5.212,2.07c1.014,1.014,2.222,2.901,2.215,6.133
	c-0.001,0.768-0.165,3.43-2.203,5.443c-1.343,1.328-3.198,1.979-5.381,1.996h-4.526v26.87h8.093c3.048,0,5.696-2.097,6.395-5.064
	l1.293-5.494c1.537-6.531,4.238-12.757,8.163-18.199c4.531-6.282,7.202-13.996,7.202-22.334
	C519.542,174.392,501.571,156.957,479.745,157.833z M496.175,216.094c0.959-0.948,1.302-2.367,1.303-3.295
	c0.004-1.761-0.443-3.101-1.328-3.986c-1.066-1.066-2.496-1.183-3.073-1.183c-0.003,0-0.007,0-0.011,0
	c-3.646,0.009-4.525,3.64-4.671,4.419v5.168h4.541C494.333,217.236,495.408,216.853,496.175,216.094z M477.269,247.114h8.1v-26.87
	h-8.1V247.114z M469.57,207.63c-0.004,0-0.007,0-0.011,0c-0.577,0-2.006,0.118-3.073,1.183c-0.885,0.885-1.332,2.226-1.328,3.986
	c0.002,0.928,0.344,2.348,1.303,3.295c0.768,0.759,1.871,1.116,3.223,1.123h4.556v-5.169
	C474.099,211.285,473.224,207.638,469.57,207.63z"></path>
<path id="color_x5F_7" fill="#AABFD0" d="M399.894,449.46c-13.249-3.331-17.562,5.45-17.562,5.45s6.47-23.011-3.697-29.974
	c-10.168-6.964-21.26,0-21.26,0s5.546-13.927-12.016-22.708c-17.562-8.78-25.265,10.878-25.265,10.878s-1.831-5.432-5.765-9.678
	c-2.786,14.587-5.549,26.911-5.549,26.911l42.039-2.312v12.425c0,0-54.749,15.287-57.137,12.181
	c-10.202-13.273-8.711-41.407-6.761-57.809c-1.821-3.08-4.304-6.552-7.572-9.731c-14.582,3.28-33.711,3.951-33.711,3.951
	l14.553,56.767h-10.719c0,0-16.677-30.802-25.54-52.688c-3.705,5.745-5.207,10.619-5.207,10.619s-2.857-7.493-12.871-8.098
	c-3.885-0.235-10.257,7.645-10.257,7.645c-4.022,4.265-5.889,9.817-5.889,9.817s-7.703-19.658-25.265-10.878
	c-17.562,8.78-12.016,22.708-12.016,22.708s-11.092-6.964-21.26,0c-10.168,6.964-3.697,29.974-3.697,29.974s-4.314-8.78-17.562-5.45
	c-13.249,3.33-8.011,18.456-8.011,18.456l36.777-0.045h96.753c-2.861-0.64-4.379-1.55-4.474-2.878
	c-0.108-1.508,2.047-2.586,2.047-2.586c13.359,0.862,19.392-10.989,19.392-10.989h0.756l-2.515-5.585h8.348l1.883,5.585h2.194v16.16
	h-7.003c0,0-0.97-2.586-1.724-2.586c-0.754,0-3.555,0.539-5.925,1.724c-0.91,0.455-2.314,0.861-3.904,1.154h123.177l-0.005-0.004
	l40.231,0.049C407.905,467.915,413.143,452.79,399.894,449.46z M371.259,439.874c0,0-2.685,0.645-2.778,1.393
	c-0.093,0.748,0.098,3.595,0.983,6.092c0.885,2.498,1.039,8.27-0.053,11.826c-1.092,3.556-2.292,5.361-3.802,5.283
	c-1.51-0.078-2.315-2.349-2.315-2.349c2.497-13.152-8.523-20.596-8.523-20.596l0.435-3.512l-0.189,1.524l-4.148,0.366v-7.819
	l5.064,0.051l0.148-1.194l16.038,1.985L371.259,439.874z"></path>
<path id="color_x5F_6" fill="#7D8E9E" d="M355.933,432.133L355.933,432.133l0.148-1.194L355.933,432.133z M355.479,435.798
	l-0.463,3.738l0.055-0.44L355.479,435.798z M367.679,467.871H263.311c0.009,0.027,0.015,0.045,0.015,0.045l28.409-0.035H379.5
	l-11.826-0.014L367.679,467.871z M493.516,453.659c-10.234-2.573-13.566,4.21-13.566,4.21s4.998-17.775-2.856-23.154
	c-7.854-5.379-16.422,0-16.422,0s4.284-10.758-9.282-17.541c-13.566-6.782-19.516,8.402-19.516,8.402s-1.442-4.289-4.549-7.583
	c0,0-3.03-5.167-6.031-4.985c-7.735,0.468-11.834,5.335-11.834,5.335s-3.035-9.869-11.425-16.485
	c-3.203-2.989-7.507-5.26-13.285-5.733c-1.114-0.091-2.191-0.125-3.234-0.107c-1.043-0.018-2.121,0.015-3.234,0.107
	c-5.777,0.473-10.081,2.745-13.285,5.733c-4.032,3.18-6.817,7.103-8.633,10.329c3.429,6.662,1.011,12.747,1.011,12.747
	s11.092-6.964,21.26,0c10.168,6.964,3.697,29.974,3.697,29.974s4.314-8.78,17.562-5.45c12.92,3.248,8.262,17.706,8.022,18.421
	h60.715l-0.004-0.003l31.076,0.038C499.704,467.915,503.751,456.232,493.516,453.659z"></path>
<path id="color_x5F_5" fill="#6b361b" d="M258.98,445.833l1.883,5.585h-7.716l-2.515-5.585H258.98z M350.869,439.901l4.148-0.366
	l0.916-7.403l-5.064-0.051V439.901z M182.986,289.067c2.018,0.297,5.045,0,5.045,0l11.468,3.664l1.392-5.735l-22.82-0.334
	C179.141,287.891,181.156,288.798,182.986,289.067z M189.04,280.698c0-1.128-2.493-2.908-3.739-3.146s-4.63-2.196-4.63-1.425
	c0,0.772,0.059,0.653,0,1.603c-0.059,0.95-1.306,1.246-2.315,2.671c-0.397,0.56-0.715,1.37-0.903,2.231l13.276,0.194
	C189.977,282.24,189.04,281.374,189.04,280.698z M418.76,290.184l-16.614-0.243l-11.923,1.442l-0.542,8.16l17.957-4.01
	c0,0,2.988,0.566,5.025,0.451c2.036-0.115,4.378-0.978,5.452-2.311C418.748,292.886,418.908,291.5,418.76,290.184z M415.983,284.9
	c0.026-0.951,0.074-0.828,0.143-1.596c0.069-0.768-3.476,0.88-4.738,1.005c-0.876,0.087-2.413,0.859-3.308,1.699l8.607,0.126
	C416.272,285.72,415.97,285.379,415.983,284.9z M304.141,242.871c-0.197,0.549-0.393,1.126-0.585,1.782
	c-0.777,2.66-2.542,7.262-2.542,7.262s0.071-7.837-2.259-9.778c-2.33-1.941-5.86,1.438-11.579,2.588
	c-5.719,1.15-8.754,0.144-11.578,0.647c-2.824,0.503-3.954,4.673-4.165,6.543c0,0-1.624-5.896-3.036-8.196
	c-0.155-0.252-0.298-0.535-0.434-0.835c-0.356,0.089-0.722,0.233-1.075,0.473c-1.5,1.023,2.522,12.271,5.931,11.862
	c0,0,0.886,6.272,5.59,8.521v4.431c0,0-2.646,3.309-1.882,4.56c3.252,5.325,18.656,5.777,18.484,0.172
	c-0.045-1.465-1.276-4.733-1.276-4.733v-4.431c4.704-2.25,5.59-8.521,5.59-8.521c3.408,0.409,7.431-10.839,5.931-11.862
	C304.89,243.107,304.509,242.958,304.141,242.871z"></path>
<path id="color_x5F_4" fill="#82b1ff" d="M279.348,385.093c3.532-0.794,6.8-1.74,9.461-2.868c0,0-0.993,5.061-1.889,12.598
	C285.099,391.743,282.616,388.271,279.348,385.093z M258.657,302.184l-23.262,2.305l-36.178-10.598l1.673-6.896l-1.392,5.735
	l-11.468-3.664c0,0-3.027,0.297-5.045,0c-1.831-0.269-3.846-1.177-4.915-2.405l-3.774-0.055
	c-7.21,24.736-16.845,38.675-45.823,39.866c-52.336,2.151-85.301,22.941-86.01,69.542c-0.745,48.93,59.431,71.901,59.431,71.901
	s-5.238-15.125,8.011-18.456c13.249-3.331,17.562,5.45,17.562,5.45s-6.47-23.011,3.697-29.974c10.168-6.964,21.26,0,21.26,0
	s-5.546-13.927,12.016-22.708c17.562-8.78,25.265,10.878,25.265,10.878s1.867-5.552,5.889-9.817c0,0,6.372-7.88,10.257-7.645
	c10.014,0.606,12.871,8.098,12.871,8.098s1.502-4.874,5.207-10.619c-3.992-9.859-6.4-17.91-4.981-20.52
	c3.64-6.698,38.999-14.086,38.999-14.086h-0.214c0,0,5.697-14.009,6.41-23.815c0.712-9.806-1.78-18.562-3.917-26.267
	C259.485,305.756,258.994,303.772,258.657,302.184z M278.409,263.739v4.431c0,0-0.504,0.631-1.009,1.446
	c0,0,0.001-0.001,0.001-0.001l-7.164,1.771c0,0-12.059,6.14-12.067,6.178l-13.747,6.048l-69.001-1.01
	c5.274-19.488,9.679-45.043,20.444-75.847c25.809-73.854,60.128-84.834,127.613-85.325c66.842-0.486,95.38,36.293,104.671,105.911
	c4.026,30.167,13.863,47.507,26.555,59.347l-46.54-0.681l8.522,0.125c-0.415-0.413-0.717-0.754-0.704-1.233
	c0.026-0.951,0.074-0.828,0.143-1.596c0.069-0.768-3.476,0.88-4.738,1.005c-0.876,0.087-2.413,0.859-3.308,1.699l-86.001-1.258
	l-4.165-2.966l0,0l-16.017-10.781l-7.705-1.523c0,0.001,0.001,0.002,0.001,0.003c-0.249-0.754-0.458-1.311-0.458-1.311v-4.431
	c4.704-2.25,5.59-8.521,5.59-8.521c3.409,0.409,7.431-10.839,5.931-11.862c-0.366-0.249-0.747-0.399-1.115-0.486
	c0.601-1.674,1.21-3.078,1.732-5.623c0.693-3.379-1.47-7.981-1.47-7.981c1.059-1.654,3.459-10.569-1.836-12.079
	c-5.295-1.51-15.744-2.948-20.898,0c-5.154,2.948-8.613,8.987-10.59,10.281c-1.977,1.294-4.448,1.294-4.871,2.588
	s1.13,2.373,0.635,4.601c-0.494,2.226,0.14,6.745,1.548,9.049c-0.153-0.25-0.295-0.528-0.429-0.824
	c-0.356,0.089-0.722,0.233-1.075,0.473c-1.5,1.023,2.522,12.271,5.931,11.862C272.819,255.218,273.705,261.49,278.409,263.739z
	 M190.729,282.827c-0.752-0.587-1.688-1.452-1.688-2.128c0-1.128-2.493-2.908-3.739-3.146c-1.246-0.237-4.63-2.196-4.63-1.424
	c0,0.772,0.059,0.653,0,1.603c-0.059,0.95-1.306,1.246-2.315,2.671c-0.397,0.56-0.715,1.37-0.903,2.231L190.729,282.827z
	 M512.568,321.275c-17.94-11.814-37.286-17.909-53.114-30.495l-40.693-0.595c0.148,1.316-0.012,2.702-0.645,3.489
	c-1.073,1.334-3.415,2.196-5.452,2.311c-2.036,0.115-5.025-0.451-5.025-0.451l-17.957,4.01l0.542-8.16l11.923-1.442l-115.515-1.69
	l41.211,0.603l8.53,6.076l53.948-5.012l-0.782,11.779l-55.526,9.992l-18.384-5.481c-1.728,8.942-3.368,22.501-0.563,33.747
	c4.629,18.562,4.629,18.562,4.629,18.562h0.023c1.329,6.647-2.049,27.425-5.393,44.934c0.001-0.008,0.003-0.015,0.004-0.023
	c3.934,4.246,5.765,9.678,5.765,9.678s7.703-19.658,25.265-10.878c5.954,2.977,9.247,6.544,11.005,9.961
	c1.816-3.226,4.601-7.15,8.633-10.329c3.203-2.989,7.507-5.26,13.285-5.733c1.114-0.091,2.191-0.125,3.234-0.107
	c1.043-0.018,2.121,0.015,3.234,0.107c5.777,0.473,10.081,2.745,13.285,5.733c8.39,6.616,11.425,16.485,11.425,16.485
	s4.099-4.868,11.834-5.335c3.001-0.181,6.031,4.985,6.031,4.985c3.107,3.294,4.549,7.583,4.549,7.583s5.95-15.185,19.516-8.402
	c13.566,6.782,9.282,17.541,9.282,17.541s8.568-5.379,16.422,0c7.854,5.379,2.856,23.154,2.856,23.154s3.332-6.782,13.566-4.21
	c10.234,2.573,6.188,14.256,6.188,14.256C567.95,451.419,556.659,350.31,512.568,321.275z M356.363,412.188L356.363,412.188
	L356.363,412.188L356.363,412.188z"></path>
<path id="color_x5F_3" fill="#0e5ab0" d="M562.751,288.27l-0.059,4.019l-529.358-7.746l0.059-4.019L562.751,288.27z
	 M232.999,462.408c0,0-2.155,1.077-2.047,2.586c0.108,1.508,2.047,2.478,5.71,3.124c3.663,0.646,9.373-0.216,11.743-1.401
	c2.37-1.185,5.171-1.724,5.925-1.724s1.724,2.586,1.724,2.586h7.003v-16.16h-10.666
	C252.391,451.419,246.358,463.269,232.999,462.408z M354.771,441.523c0,0,11.02,7.443,8.523,20.596c0,0,0.804,2.271,2.315,2.349
	c1.51,0.078,2.711-1.727,3.802-5.283c1.092-3.556,0.938-9.328,0.053-11.826c-0.885-2.498-1.075-5.344-0.983-6.092
	c0.093-0.748,2.778-1.393,2.778-1.393l0.86-6.95l-16.038-1.985L354.771,441.523z M319.717,358.516h-61.768
	c0,0-35.359,7.388-38.999,14.086c-4.568,8.405,30.521,73.209,30.521,73.209h10.719l-14.553-56.767c0,0,29.522-1.033,43.172-6.819
	c0,0-10.017,51.034,4.872,70.407c2.387,3.106,57.137-12.181,57.137-12.181v-12.425l-42.039,2.312
	C308.779,430.338,322.153,370.697,319.717,358.516z"></path>
<path id="color_x5F_2" fill="#f57373" d="M244.423,283.612l13.747-6.048c0.008-0.038,12.067-6.178,12.067-6.178l7.164-1.771
	c-0.652,1.052-1.305,2.411-0.874,3.116c3.252,5.325,18.656,5.777,18.484,0.172c-0.027-0.863-0.463-2.347-0.819-3.425l7.705,1.523
	l16.018,10.781l0,0l4.165,2.966L244.423,283.612z M327.842,288.853l-92.263-1.35l-1.525,0.671l-7.967-0.81l-25.196-0.369
	l-1.673,6.896l36.178,10.598l23.262-2.305c0.337,1.588,0.828,3.572,1.57,6.25c2.137,7.705,4.629,16.461,3.917,26.267
	c-0.712,9.806-6.41,23.815-6.41,23.815h61.96c0,0,0,0-4.629-18.562c-2.805-11.246-1.165-24.805,0.563-33.747l18.384,5.481
	l55.526-9.992l0.782-11.779l-53.948,5.012L327.842,288.853z"></path>
<path id="color_x5F_1" d="M271.433,251.915c0,0-1.624-5.896-3.036-8.196c-1.412-2.301-2.047-6.83-1.553-9.059
	c0.494-2.229-1.059-3.307-0.635-4.601c0.424-1.294,2.895-1.294,4.871-2.588c1.977-1.294,5.436-7.334,10.59-10.281
	c5.154-2.948,15.603-1.51,20.898,0c5.295,1.51,2.895,10.425,1.836,12.079c0,0,2.163,4.601,1.47,7.981
	c-0.693,3.379-1.54,4.745-2.317,7.405s-2.542,7.262-2.542,7.262s0.071-7.837-2.259-9.778c-2.33-1.941-5.86,1.438-11.579,2.588
	s-8.754,0.144-11.578,0.647C272.774,245.875,271.645,250.045,271.433,251.915z" fill="#000000"></path>
</svg>